<svg version="1.1" id="Capa_1" xmlns="http://www.w3.org/2000/svg" xmlns:xlink="http://www.w3.org/1999/xlink" x="0px" y="0px" viewBox="0 0 1024 1024" style="enable-background:new 0 0 42.877 42.877;" xml:space="preserve" width="1024" height="1024" transform="matrix(-1,1.2246467991473532e-16,-1.2246467991473532e-16,-1,0,0)"><g><path style="fill:#ffffff;" d="M387.274 526.748a1527.438 1527.438 0 0 1 -7.57 45.448c-6.854 38.666 -13.35 75.23 -11.988 112.724 2.316 65.008 44.182 117 106.634 132.498 46.762 11.654 95.936 8.788 152.368 -8.908 131.042 -41.054 237.008 -122.23 323.94 -248.16 51.252 -74.178 75.182 -146.35 73.224 -220.648 -1.552 -62.738 -40.122 -113.942 -98.108 -130.468 -49.436 -14.066 -98.442 -12.848 -154.662 4.108a105.244 105.244 0 0 1 22.76 13.184c41.412 31.476 54.81 77.808 39.788 137.706 -18.604 74.036 -61.998 135.676 -101.166 187.642 -8.168 10.818 -17.768 23.404 -28.468 35.728 -19.296 22.114 -35.25 33.34 -47.526 33.34 -6.83 0 -13.924 -3.128 -18.438 -8.264a25.554 25.554 0 0 1 -5.922 -19.392l0.98 -7.356c13.66 -87.744 24.766 -166.842 22.76 -247.706 -1.6 -65.532 -42.32 -116.188 -106.276 -132.212 -29.136 -7.356 -59.802 -8.216 -96.866 -2.698 -41.556 6.162 -81.654 18.676 -122.612 38.26a417.978 417.978 0 0 0 -35.8 19.272c51.728 22.33 85.522 64.674 98.754 124.378 9.482 42.702 3.104 83.898 -3.056 123.734l-2.746 17.792zM125.836 821.216c41.436 5.66 82.848 2.222 126.648 -10.724a117.62 117.62 0 0 1 -39.644 -29.446 114.086 114.086 0 0 1 -27.298 -91.564 313.144 313.144 0 0 1 25.076 -86.62c20.896 -46.928 50.248 -88.126 78.644 -127.986l2.364 -3.296c27.346 -38.378 20.586 -87.122 -16.408 -118.504 -13.828 -11.726 -32.17 -18.174 -51.634 -18.174 -23.668 0 -47.024 9.458 -64.148 25.936 -34.964 33.674 -62.262 65.604 -83.492 97.582C21.254 540.814 -2.128 609.834 0.142 682.126c2.34 74.274 51.682 128.892 125.692 139.09z"></path></g></svg>